<svg width="26" height="20" viewBox="0 0 26 20" fill="none" xmlns="http://www.w3.org/2000/svg">
<path d="M0.166309 1.875C0.567853 0.782638 1.65131 0 2.92487 0H23.0749C24.3485 0 25.4319 0.782638 25.8335 1.875H0.166309ZM26 9.0625H17.941C17.699 9.7705 17.297 10.4086 16.7761 10.9375H26V9.0625ZM26 6.25H18.0362C17.8502 5.55503 17.5127 4.91854 17.0595 4.375H26V6.25ZM16.6781 6.25C16.394 5.47744 15.8543 4.82107 15.1566 4.375C14.5388 3.9801 13.7974 3.75 13 3.75C12.2026 3.75 11.4612 3.9801 10.8434 4.375C10.1457 4.82107 9.60589 5.47744 9.32192 6.25C9.17819 6.64097 9.1 7.0617 9.1 7.5C9.1 8.05762 9.22658 8.58687 9.45363 9.0625C9.85252 9.89812 10.5615 10.5686 11.4388 10.9375C11.9168 11.1385 12.4449 11.25 13 11.25C13.5551 11.25 14.0832 11.1385 14.5612 10.9375C15.4385 10.5686 16.1474 9.89812 16.5464 9.0625C16.7734 8.58687 16.9 8.05762 16.9 7.5C16.9 7.0617 16.8217 6.64097 16.6781 6.25ZM11.05 7.5C11.05 6.46446 11.9231 5.625 13 5.625C14.0769 5.625 14.95 6.46446 14.95 7.5C14.95 8.5355 14.0769 9.375 13 9.375C11.9231 9.375 11.05 8.5355 11.05 7.5ZM0 4.375H8.9405C8.48736 4.91854 8.14986 5.55503 7.96383 6.25H0V4.375ZM0 9.0625H8.05895C8.30095 9.7705 8.70295 10.4086 9.22382 10.9375H0V9.0625ZM0 13.75H5.33458C5.2469 14.048 5.2 14.3625 5.2 14.6875V15.625H0V13.75ZM0.166309 18.125H5.2V20H2.92487C1.65131 20 0.567853 19.2174 0.166309 18.125ZM6.5 14.6875C6.5 14.352 6.57855 14.0341 6.71893 13.75C7.08405 13.011 7.86747 12.5 8.775 12.5H17.225C18.1325 12.5 18.9159 13.011 19.2811 13.75C19.4215 14.0341 19.5 14.352 19.5 14.6875V20H17.55V14.6875C17.55 14.5149 17.4045 14.375 17.225 14.375H8.775C8.59551 14.375 8.45 14.5149 8.45 14.6875V20H6.5V14.6875ZM20.8 18.125V20H23.0749C24.3485 20 25.4319 19.2174 25.8335 18.125H20.8ZM26 15.625H20.8V14.6875C20.8 14.3625 20.7531 14.048 20.6654 13.75H26V15.625Z" fill="#212121"/>
</svg>
