<svg width="22" height="22" viewBox="0 0 22 22" fill="none" xmlns="http://www.w3.org/2000/svg">
<mask id="path-1-inside-1_240_4812" fill="white">
<path d="M11 0C8.08262 -3.47894e-08 5.28473 1.15893 3.22183 3.22183C1.15893 5.28473 2.55046e-07 8.08262 0 11C-2.55046e-07 13.9174 1.15892 16.7153 3.22182 18.7782C5.28472 20.8411 8.08262 22 11 22L11 11V0Z"/>
</mask>
<path d="M11 0C8.08262 -3.47894e-08 5.28473 1.15893 3.22183 3.22183C1.15893 5.28473 2.55046e-07 8.08262 0 11C-2.55046e-07 13.9174 1.15892 16.7153 3.22182 18.7782C5.28472 20.8411 8.08262 22 11 22L11 11V0Z" stroke="black" stroke-width="2" mask="url(#path-1-inside-1_240_4812)"/>
<path d="M11 22C13.9174 22 16.7153 20.8411 18.7782 18.7782C20.8411 16.7153 22 13.9174 22 11C22 8.08262 20.8411 5.28473 18.7782 3.22183C16.7153 1.15893 13.9174 -7.06605e-07 11 -9.6165e-07L11 11L11 22Z" fill="black"/>
</svg>
