<svg width="34" height="34" viewBox="0 0 34 34" fill="none" xmlns="http://www.w3.org/2000/svg">
<path d="M3.54163 17C3.54163 10.6556 3.54163 7.48348 5.51255 5.51255C7.48348 3.54163 10.6556 3.54163 17 3.54163C23.3443 3.54163 26.5164 3.54163 28.4874 5.51255C30.4583 7.48348 30.4583 10.6556 30.4583 17C30.4583 23.3443 30.4583 26.5164 28.4874 28.4874C26.5164 30.4583 23.3443 30.4583 17 30.4583C10.6556 30.4583 7.48348 30.4583 5.51255 28.4874C3.54163 26.5164 3.54163 23.3443 3.54163 17Z" stroke="black" stroke-width="1.5"/>
<path d="M19.8332 9.91663C19.8332 9.91663 14.1666 15.1334 14.1666 17C14.1666 18.8666 19.8333 24.0833 19.8333 24.0833" stroke="black" stroke-width="1.5" stroke-linecap="round" stroke-linejoin="round"/>
</svg>
