<svg width="30" height="30" viewBox="0 0 30 30" fill="none" xmlns="http://www.w3.org/2000/svg">
<rect x="0.765381" y="0.630005" width="28.47" height="28.47" rx="9" fill="white"/>
<path d="M15.0002 23.6247V18.1497M18.2852 21.4349L15.7745 24.1318C15.4095 24.5239 15.227 24.7199 15.0002 24.7199C14.7734 24.7199 14.5909 24.5239 14.2259 24.1318L11.7152 21.4349" stroke="black" stroke-width="1.5" stroke-linecap="round" stroke-linejoin="round"/>
<path d="M23.7603 14.8648H18.2853M21.5702 18.15L24.2671 15.6392C24.6592 15.2742 24.8552 15.0917 24.8552 14.865C24.8552 14.6382 24.6592 14.4557 24.2671 14.0907L21.5702 11.58" stroke="black" stroke-width="1.5" stroke-linecap="round" stroke-linejoin="round"/>
<path d="M15.0002 11.5799L15.0002 6.10494M18.2852 8.29489L15.7745 5.59799C15.4095 5.20592 15.227 5.00989 15.0002 5.00989C14.7734 5.00989 14.5909 5.20592 14.2259 5.59799L11.7152 8.29489" stroke="black" stroke-width="1.5" stroke-linecap="round" stroke-linejoin="round"/>
<path d="M11.7152 14.8647L6.2402 14.8648M8.43026 11.5798L5.73336 14.0906C5.3413 14.4556 5.14526 14.6381 5.14526 14.8648C5.14526 15.0916 5.3413 15.2741 5.73336 15.6391L8.43026 18.1498" stroke="black" stroke-width="1.5" stroke-linecap="round" stroke-linejoin="round"/>
</svg>
