<svg width="21" height="19" viewBox="0 0 21 19" fill="none" xmlns="http://www.w3.org/2000/svg">
<path d="M11 1H6C3.23858 1 1 3.23858 1 6V13C1 15.7614 3.23858 18 6 18H11V1Z" fill="#82B338"/>
<path d="M2.39124 2.24031C3.78249 1 6.02166 1 10.5 1C14.9783 1 17.2175 1 18.6088 2.24031C20 3.48061 20 5.47686 20 9.46934C20 13.4618 20 15.4581 18.6088 16.6984C17.2175 17.9387 14.9783 17.9387 10.5 17.9387C6.02166 17.9387 3.78249 17.9387 2.39124 16.6984C1 15.4581 1 13.4618 1 9.46934C1 5.47686 1 3.48061 2.39124 2.24031Z" stroke="black" stroke-width="1.5" stroke-linecap="round" stroke-linejoin="round"/>
<path d="M10.5 1V17.9387" stroke="black" stroke-width="1.5" stroke-linecap="round"/>
</svg>
