<svg width="22" height="22" viewBox="0 0 22 22" fill="none" xmlns="http://www.w3.org/2000/svg">
<path d="M2.89149 19.1088C1.50024 17.7175 1.50024 15.4783 1.50024 11C1.50024 6.52166 1.50024 4.28249 2.89149 2.89124C4.28273 1.5 6.5219 1.5 11.0002 1.5C15.4786 1.5 17.7178 1.5 19.109 2.89124C20.5002 4.28248 20.5002 6.52166 20.5002 11C20.5002 15.4783 20.5002 17.7175 19.109 19.1088C17.7178 20.5 15.4786 20.5 11.0002 20.5C6.5219 20.5 4.28273 20.5 2.89149 19.1088Z" stroke="black" stroke-width="1.5" stroke-linecap="round" stroke-linejoin="round"/>
<path d="M1.50024 7.99976L20.5002 7.99976" stroke="black" stroke-width="1.5"/>
<path d="M1.50024 13.9998L20.5002 13.9998" stroke="black" stroke-width="1.5"/>
<path d="M15.0002 20.5L15.0002 1.5" stroke="black" stroke-width="1.5"/>
<path d="M7.00024 20.4998L7.00024 1.49976" stroke="black" stroke-width="1.5"/>
</svg>
