<svg width="24" height="24" viewBox="0 0 24 24" fill="none" xmlns="http://www.w3.org/2000/svg">
<path d="M15.9999 2H11.9999C9.17145 2 7.75724 2 6.87856 2.94627C5.99988 3.89254 5.99988 5.41554 5.99988 8.46154V9.53846C5.99988 12.5845 5.99988 14.1075 6.87856 15.0537C7.75724 16 9.17145 16 11.9999 16H15.9999C18.8283 16 20.2425 16 21.1212 15.0537C21.9999 14.1075 21.9999 12.5845 21.9999 9.53846V8.46154C21.9999 5.41554 21.9999 3.89254 21.1212 2.94627C20.2425 2 18.8283 2 15.9999 2Z" stroke="black" stroke-width="1.5"/>
<path d="M17.9999 16.6082C17.9878 18.9537 17.8913 20.2239 17.1228 21.0525C16.2441 22 14.8297 22 12.001 22H8.00053C5.1718 22 3.75743 22 2.87865 21.0525C1.99988 20.1049 1.99988 18.5799 1.99988 15.5298V14.4515C1.99988 11.4014 1.99988 9.87638 2.87865 8.92885C3.52003 8.2373 4.4467 8.05047 6.00031 8" stroke="black" stroke-width="1.5"/>
</svg>
