<svg width="22" height="16" viewBox="0 0 22 16" fill="none" xmlns="http://www.w3.org/2000/svg">
<path d="M12.9991 15L10.106 6.74791C8.76257 2.91597 8.09085 1 6.99908 1C5.90732 1 5.2356 2.91597 3.89217 6.74791L0.999084 15" stroke="black" stroke-width="1.5" stroke-linecap="round"/>
<path d="M3.49908 8H10.4991" stroke="black" stroke-width="1.5" stroke-linecap="round"/>
<path d="M20.2491 14.5C20.2491 14.9142 20.5849 15.25 20.9991 15.25C21.4133 15.25 21.7491 14.9142 21.7491 14.5H20.2491ZM18.8902 6.03078L19.0075 5.29001L18.8902 6.03078ZM20.9683 8.10891L20.2275 8.22624V8.22624L20.9683 8.10891ZM17.108 6.03078L16.9907 5.29001H16.9907L17.108 6.03078ZM20.9991 10H21.7491C21.7491 9.58579 21.4133 9.25 20.9991 9.25V10ZM14.5202 7.20006C14.3545 7.5797 14.528 8.02176 14.9077 8.18741C15.2873 8.35307 15.7294 8.17959 15.895 7.79994L14.5202 7.20006ZM20.2491 9V14.5H21.7491V9H20.2491ZM17.9991 6.75C18.4922 6.75 18.6515 6.75233 18.7728 6.77155L19.0075 5.29001C18.7402 5.24767 18.4349 5.25 17.9991 5.25V6.75ZM21.7491 9C21.7491 8.56416 21.7514 8.25892 21.7091 7.99159L20.2275 8.22624C20.2468 8.34758 20.2491 8.50684 20.2491 9H21.7491ZM18.7728 6.77155C19.5217 6.89015 20.1089 7.47743 20.2275 8.22624L21.7091 7.99159C21.4888 6.60094 20.3981 5.51027 19.0075 5.29001L18.7728 6.77155ZM17.9991 5.25C17.5632 5.25 17.258 5.24767 16.9907 5.29001L17.2253 6.77155C17.3467 6.75233 17.5059 6.75 17.9991 6.75V5.25ZM17.4991 10.75H20.9991V9.25H17.4991V10.75ZM20.2491 10V11.5714H21.7491V10H20.2491ZM20.2491 11.5714C20.2491 13.0508 19.0498 14.25 17.5705 14.25V15.75C19.8783 15.75 21.7491 13.8792 21.7491 11.5714H20.2491ZM17.4991 9.25C15.7042 9.25 14.2491 10.7051 14.2491 12.5H15.7491C15.7491 11.5335 16.5326 10.75 17.4991 10.75V9.25ZM15.895 7.79994C16.1299 7.26158 16.6262 6.86644 17.2253 6.77155L16.9907 5.29001C15.877 5.4664 14.9562 6.20086 14.5202 7.20006L15.895 7.79994ZM17.5705 14.25C16.5627 14.25 15.7491 13.4714 15.7491 12.5H14.2491C14.2491 14.3658 15.8018 15.75 17.5705 15.75V14.25Z" fill="black"/>
</svg>
