<svg width="18" height="22" viewBox="0 0 18 22" fill="none" xmlns="http://www.w3.org/2000/svg">
<path d="M2.14286 13C1.41735 11.8082 1 10.4118 1 8.91886C1 4.54539 4.58172 1 9 1C13.4183 1 17 4.54539 17 8.91886C17 10.4118 16.5827 11.8082 15.8571 13" stroke="#000000" stroke-width="1.5" stroke-linecap="round"/>
<path d="M11 9C10.3875 9.64319 9.7111 10 9 10C8.28889 10 7.61246 9.64319 7 9" stroke="#000000" stroke-width="1.5" stroke-linecap="round"/>
<path d="M4.38287 16.0982C4.291 15.8216 4.24507 15.6833 4.25042 15.5713C4.26174 15.3343 4.41114 15.1262 4.63157 15.0405C4.73579 15 4.88105 15 5.17157 15H12.8284C13.119 15 13.2642 15 13.3684 15.0405C13.5889 15.1262 13.7383 15.3343 13.7496 15.5713C13.7549 15.6833 13.709 15.8216 13.6171 16.0982C13.4473 16.6094 13.3624 16.8651 13.2315 17.072C12.9572 17.5056 12.5272 17.8167 12.0306 17.9408C11.7935 18 11.525 18 10.9881 18H7.01186C6.47495 18 6.2065 18 5.96944 17.9408C5.47283 17.8167 5.04281 17.5056 4.7685 17.072C4.63755 16.8651 4.55266 16.6094 4.38287 16.0982Z" stroke="#000000" stroke-width="1.5"/>
<path d="M12 18L11.8707 18.6466C11.7293 19.3537 11.6586 19.7072 11.5001 19.9866C11.2552 20.4185 10.8582 20.7439 10.3866 20.8994C10.0816 21 9.72105 21 9 21C8.27895 21 7.91842 21 7.61338 20.8994C7.14175 20.7439 6.74484 20.4185 6.49987 19.9866C6.34144 19.7072 6.27073 19.3537 6.12932 18.6466L6 18" stroke="#000000" stroke-width="1.5"/>
<path d="M9 14.5V10" stroke="#000000" stroke-width="1.5" stroke-linecap="round" stroke-linejoin="round"/>
</svg>
