<svg width="22" height="22" viewBox="0 0 22 22" fill="none" xmlns="http://www.w3.org/2000/svg">
<path d="M13.0728 2.88545C13.818 2.07808 14.1906 1.6744 14.5865 1.43893C15.5418 0.870759 16.7182 0.853091 17.6894 1.39232C18.092 1.6158 18.476 2.00812 19.2441 2.79276C20.0122 3.5774 20.3963 3.96972 20.615 4.38093C21.1429 5.37312 21.1256 6.57479 20.5694 7.5507C20.3389 7.95516 19.9437 8.33578 19.1534 9.09701L9.74971 18.1543C8.25196 19.5969 7.50308 20.3182 6.56714 20.6837C5.63121 21.0493 4.60229 21.0224 2.54445 20.9686L2.26446 20.9613C1.63799 20.9449 1.32475 20.9367 1.14267 20.73C0.960587 20.5234 0.985446 20.2043 1.03516 19.5662L1.06216 19.2197C1.20209 17.4235 1.27206 16.5255 1.62279 15.7182C1.97352 14.9109 2.57852 14.2555 3.78851 12.9445L13.0728 2.88545Z" stroke="black" stroke-width="1.5" stroke-linejoin="round"/>
<path d="M11.9991 3L18.9991 10" stroke="black" stroke-width="1.5" stroke-linejoin="round"/>
<path d="M12.9991 21L20.9991 21" stroke="black" stroke-width="1.5" stroke-linecap="round" stroke-linejoin="round"/>
</svg>
