<svg width="34" height="34" viewBox="0 0 34 34" fill="none" xmlns="http://www.w3.org/2000/svg">
<path d="M8.5 25.4638C8.68232 27.3174 9.09438 28.5651 10.0256 29.4963C11.6959 31.1667 14.3843 31.1667 19.761 31.1667C25.1377 31.1667 27.826 31.1667 29.4963 29.4963C31.1667 27.826 31.1667 25.1377 31.1667 19.761C31.1667 14.3843 31.1667 11.6959 29.4963 10.0256C28.5651 9.09438 27.3174 8.68232 25.4638 8.5" stroke="black" stroke-width="1.5"/>
<path d="M2.83301 14.1667C2.83301 8.82412 2.83301 6.15283 4.49274 4.4931C6.15246 2.83337 8.82376 2.83337 14.1663 2.83337C19.5089 2.83337 22.1802 2.83337 23.8399 4.4931C25.4997 6.15283 25.4997 8.82412 25.4997 14.1667C25.4997 19.5093 25.4997 22.1806 23.8399 23.8403C22.1802 25.5 19.5089 25.5 14.1663 25.5C8.82376 25.5 6.15246 25.5 4.49274 23.8403C2.83301 22.1806 2.83301 19.5093 2.83301 14.1667Z" stroke="black" stroke-width="1.5"/>
<path d="M2.83301 15.7513C3.70995 15.6398 4.59653 15.5847 5.4846 15.5867C9.24152 15.5172 12.9064 16.5415 15.8254 18.4768C18.5325 20.2717 20.4347 22.7418 21.2497 25.5" stroke="black" stroke-width="1.5" stroke-linejoin="round"/>
<path d="M18.4157 9.91675H18.4285" stroke="black" stroke-width="2" stroke-linecap="round" stroke-linejoin="round"/>
</svg>
