<svg width="22" height="22" viewBox="0 0 22 22" fill="none" xmlns="http://www.w3.org/2000/svg">
<path d="M1.50024 11C1.50024 6.52166 1.50024 4.28249 2.89149 2.89124C4.28273 1.5 6.5219 1.5 11.0002 1.5C15.4786 1.5 17.7178 1.5 19.109 2.89124C20.5002 4.28249 20.5002 6.52166 20.5002 11C20.5002 15.4783 20.5002 17.7175 19.109 19.1088C17.7178 20.5 15.4786 20.5 11.0002 20.5C6.5219 20.5 4.28273 20.5 2.89149 19.1088C1.50024 17.7175 1.50024 15.4783 1.50024 11Z" stroke="black" stroke-width="1.5"/>
<circle cx="15.5002" cy="6.5" r="1.5" stroke="black" stroke-width="1.5"/>
<path d="M15.0002 21C14.3807 18.7749 12.9347 16.7821 10.8768 15.3342C8.65785 13.7729 5.87187 12.9466 3.01594 13.0027C2.67683 13.0019 2.338 13.0127 2.00024 13.0351" stroke="black" stroke-width="1.5" stroke-linejoin="round"/>
<path d="M12.0002 17C13.7018 15.6733 15.5347 14.9928 17.3865 15.0001C18.4365 14.999 19.4815 15.2216 20.5002 15.6617" stroke="black" stroke-width="1.5" stroke-linejoin="round"/>
</svg>
