<svg width="24" height="24" viewBox="0 0 24 24" fill="none" xmlns="http://www.w3.org/2000/svg">
<path d="M13.001 4L3.00098 4" stroke="#141B34" stroke-width="1.5" stroke-linecap="round" stroke-linejoin="round"/>
<path d="M11.001 19L3.00098 19" stroke="#141B34" stroke-width="1.5" stroke-linecap="round" stroke-linejoin="round"/>
<path d="M21.001 19L17.001 19" stroke="#141B34" stroke-width="1.5" stroke-linecap="round" stroke-linejoin="round"/>
<path d="M21.001 11.5L11.001 11.5" stroke="#141B34" stroke-width="1.5" stroke-linecap="round" stroke-linejoin="round"/>
<path d="M21.001 4L19.001 4" stroke="#141B34" stroke-width="1.5" stroke-linecap="round" stroke-linejoin="round"/>
<path d="M5.00098 11.5L3.00098 11.5" stroke="#141B34" stroke-width="1.5" stroke-linecap="round" stroke-linejoin="round"/>
<path d="M14.501 2C14.9669 2 15.1999 2 15.3837 2.07612C15.6287 2.17761 15.8234 2.37229 15.9249 2.61732C16.001 2.80109 16.001 3.03406 16.001 3.5L16.001 4.5C16.001 4.96594 16.001 5.19891 15.9249 5.38268C15.8234 5.62771 15.6287 5.82239 15.3837 5.92388C15.1999 6 14.9669 6 14.501 6C14.035 6 13.8021 6 13.6183 5.92388C13.3733 5.82239 13.1786 5.62771 13.0771 5.38268C13.001 5.19891 13.001 4.96594 13.001 4.5L13.001 3.5C13.001 3.03406 13.001 2.80109 13.0771 2.61732C13.1786 2.37229 13.3733 2.17761 13.6183 2.07612C13.8021 2 14.035 2 14.501 2Z" stroke="#141B34" stroke-width="1.5" stroke-linecap="round" stroke-linejoin="round"/>
<path d="M12.501 17C12.9669 17 13.1999 17 13.3837 17.0761C13.6287 17.1776 13.8234 17.3723 13.9249 17.6173C14.001 17.8011 14.001 18.0341 14.001 18.5L14.001 19.5C14.001 19.9659 14.001 20.1989 13.9249 20.3827C13.8234 20.6277 13.6287 20.8224 13.3837 20.9239C13.1999 21 12.9669 21 12.501 21C12.035 21 11.8021 21 11.6183 20.9239C11.3733 20.8224 11.1786 20.6277 11.0771 20.3827C11.001 20.1989 11.001 19.9659 11.001 19.5L11.001 18.5C11.001 18.0341 11.001 17.8011 11.0771 17.6173C11.1786 17.3723 11.3733 17.1776 11.6183 17.0761C11.8021 17 12.035 17 12.501 17Z" stroke="#141B34" stroke-width="1.5" stroke-linecap="round" stroke-linejoin="round"/>
<path d="M9.50098 9.5C9.96692 9.5 10.1999 9.5 10.3837 9.57612C10.6287 9.67761 10.8234 9.87229 10.9249 10.1173C11.001 10.3011 11.001 10.5341 11.001 11L11.001 12C11.001 12.4659 11.001 12.6989 10.9249 12.8827C10.8234 13.1277 10.6287 13.3224 10.3837 13.4239C10.1999 13.5 9.96692 13.5 9.50098 13.5C9.03503 13.5 8.80206 13.5 8.61829 13.4239C8.37326 13.3224 8.17859 13.1277 8.0771 12.8827C8.00098 12.6989 8.00098 12.4659 8.00098 12L8.00098 11C8.00098 10.5341 8.00098 10.3011 8.0771 10.1173C8.17859 9.87229 8.37326 9.67761 8.61829 9.57612C8.80206 9.5 9.03503 9.5 9.50098 9.5Z" stroke="#141B34" stroke-width="1.5" stroke-linecap="round" stroke-linejoin="round"/>
</svg>
