<svg viewBox="0 0 24 24" fill="none" xmlns="http://www.w3.org/2000/svg">
  <path d="M17.5 17.5L22 22" stroke="black" stroke-width="1.5" stroke-linecap="round" stroke-linejoin="round"/>
  <path d="M 11 20.75 C 8.361 20.75 5.829 19.617 4.106 17.894 C 2.383 16.171 1.25 13.639 1.25 11 C 1.25 8.361 2.383 5.829 4.106 4.106 C 5.829 2.383 8.361 1.25 11 1.25 C 13.639 1.25 16.171 2.383 17.894 4.106 C 19.618 5.829 20.75 8.361 20.75 11 C 20.75 13.639 19.617 16.171 17.894 17.894 C 16.171 19.618 13.639 20.75 11 20.75 Z M 16.834 16.834 C 18.368 15.299 19.25 13.332 19.25 11 C 19.25 8.668 18.368 6.701 16.834 5.166 C 15.299 3.632 13.332 2.75 11 2.75 C 8.668 2.75 6.701 3.632 5.166 5.166 C 3.632 6.701 2.75 8.668 2.75 11 C 2.75 13.332 3.632 15.299 5.166 16.834 C 6.701 18.368 8.668 19.25 11 19.25 C 13.332 19.25 15.299 18.368 16.834 16.834 Z" style="fill: rgb(0, 0, 0);"/>
</svg>