<svg width="34" height="34" viewBox="0 0 34 34" fill="none" xmlns="http://www.w3.org/2000/svg">
<path d="M12.2442 4.4563L9.82906 5.57267C6.10969 7.29189 4.25 8.1515 4.25 9.56254C4.25 10.9736 6.10969 11.8332 9.82907 13.5524L12.2442 14.6688C14.5849 15.7507 15.7553 16.2917 17 16.2917C18.2447 16.2917 19.4151 15.7507 21.7558 14.6688L24.1709 13.5524C27.8903 11.8332 29.75 10.9736 29.75 9.56254C29.75 8.1515 27.8903 7.29189 24.1709 5.57266L21.7558 4.4563C19.4151 3.37435 18.2447 2.83337 17 2.83337C15.7553 2.83337 14.5849 3.37435 12.2442 4.4563Z" stroke="black" stroke-width="1.5" stroke-linecap="round" stroke-linejoin="round"/>
<path d="M29.4497 15.7212C29.6499 16.0028 29.75 16.2962 29.75 16.619C29.75 18.0099 27.8903 18.8573 24.1709 20.552L21.7558 21.6525C19.4151 22.719 18.2447 23.2523 17 23.2523C15.7553 23.2523 14.5849 22.719 12.2442 21.6525L9.82907 20.552C6.10969 18.8573 4.25 18.0099 4.25 16.619C4.25 16.2962 4.35011 16.0028 4.55033 15.7212" stroke="black" stroke-width="1.5" stroke-linecap="round" stroke-linejoin="round"/>
<path d="M28.8669 23.0437C29.4556 23.5126 29.75 23.9799 29.75 24.5333C29.75 25.9243 27.8903 26.7717 24.1709 28.4664L21.7558 29.5669C19.4151 30.6334 18.2447 31.1667 17 31.1667C15.7553 31.1667 14.5849 30.6334 12.2442 29.5669L9.82907 28.4664C6.10969 26.7717 4.25 25.9243 4.25 24.5333C4.25 23.9799 4.54435 23.5126 5.13306 23.0437" stroke="black" stroke-width="1.5" stroke-linecap="round" stroke-linejoin="round"/>
</svg>
