<svg width="22" height="18" viewBox="0 0 22 18" fill="none" xmlns="http://www.w3.org/2000/svg">
<path d="M18.5 14.5C18.5 15.8807 17.3807 17 16 17C14.6193 17 13.5 15.8807 13.5 14.5C13.5 13.1193 14.6193 12 16 12C17.3807 12 18.5 13.1193 18.5 14.5Z" stroke="black" stroke-width="1.5"/>
<path d="M8.5 14.5C8.5 15.8807 7.38071 17 6 17C4.61929 17 3.5 15.8807 3.5 14.5C3.5 13.1193 4.61929 12 6 12C7.38071 12 8.5 13.1193 8.5 14.5Z" stroke="black" stroke-width="1.5"/>
<path d="M13.5 14.5H8.5M18.5 14.5H19.2632C19.4831 14.5 19.5931 14.5 19.6855 14.4885C20.3669 14.4036 20.9036 13.8669 20.9885 13.1855C21 13.0931 21 12.9831 21 12.7632V10C21 6.41015 18.0899 3.5 14.5 3.5M14 12.5V4C14 2.58579 14 1.87868 13.5607 1.43934C13.1213 1 12.4142 1 11 1H4C2.58579 1 1.87868 1 1.43934 1.43934C1 1.87868 1 2.58579 1 4V12C1 12.9346 1 13.4019 1.20096 13.75C1.33261 13.978 1.52197 14.1674 1.75 14.299C2.09808 14.5 2.56538 14.5 3.5 14.5" stroke="black" stroke-width="1.5" stroke-linecap="round" stroke-linejoin="round"/>
</svg>
