<svg width="160" height="48" viewBox="0 0 160 48" fill="none" xmlns="http://www.w3.org/2000/svg">
<rect x="0.75" y="0.75" width="27.5" height="46.5" rx="4.25" fill="white" stroke="black" stroke-width="1.5"/>
<rect x="3" y="3" width="23" height="42" rx="3" fill="#D9D9D9"/>
<rect x="9" y="6" width="11" height="2" rx="1" fill="black"/>
<rect x="12" y="41" width="5" height="2" rx="1" fill="black"/>
<path d="M36 24.5H61" stroke="#82B338" stroke-width="2" stroke-linecap="round"/>
<path d="M99 23.5C98.4477 23.5 98 23.9477 98 24.5C98 25.0523 98.4477 25.5 99 25.5V23.5ZM124.707 25.2071C125.098 24.8166 125.098 24.1834 124.707 23.7929L118.343 17.4289C117.953 17.0384 117.319 17.0384 116.929 17.4289C116.538 17.8195 116.538 18.4526 116.929 18.8431L122.586 24.5L116.929 30.1569C116.538 30.5474 116.538 31.1805 116.929 31.5711C117.319 31.9616 117.953 31.9616 118.343 31.5711L124.707 25.2071ZM99 25.5H124V23.5H99V25.5Z" fill="#82B338"/>
<path d="M70.5 24C70.5 19.5217 70.5 17.2825 71.8912 15.8912C73.2825 14.5 75.5217 14.5 80 14.5C84.4783 14.5 86.7175 14.5 88.1088 15.8912C89.5 17.2825 89.5 19.5217 89.5 24C89.5 28.4783 89.5 30.7175 88.1088 32.1088C86.7175 33.5 84.4783 33.5 80 33.5C75.5217 33.5 73.2825 33.5 71.8912 32.1088C70.5 30.7175 70.5 28.4783 70.5 24Z" stroke="black" stroke-width="1.5"/>
<circle cx="84.5" cy="19.5" r="1.5" stroke="black" stroke-width="1.5"/>
<path d="M84 34C83.3805 31.7749 81.9345 29.7821 79.8765 28.3342C77.6576 26.7729 74.8716 25.9466 72.0157 26.0027C71.6766 26.0019 71.3378 26.0127 71 26.0351" stroke="black" stroke-width="1.5" stroke-linejoin="round"/>
<path d="M81 30C82.7015 28.6733 84.5345 27.9928 86.3862 28.0001C87.4362 27.999 88.4812 28.2216 89.5 28.6617" stroke="black" stroke-width="1.5" stroke-linejoin="round"/>
<rect x="131.75" y="0.75" width="27.5" height="46.5" rx="4.25" fill="white" stroke="black" stroke-width="1.5"/>
<rect x="134" y="3" width="23" height="42" rx="3" fill="#D9D9D9"/>
<rect x="140" y="6" width="11" height="2" rx="1" fill="black"/>
<rect x="143" y="41" width="5" height="2" rx="1" fill="black"/>
</svg>
